<svg width="30" height="30" viewBox="0 0 30 30" fill="none" xmlns="http://www.w3.org/2000/svg">
<rect x="0.5" y="0.5" width="29" height="29" rx="14.5" stroke="white"/>
<path d="M15.0001 11.795C13.2266 11.795 11.7954 13.2262 11.7954 14.9997C11.7954 16.7731 13.2266 18.2044 15.0001 18.2044C16.7735 18.2044 18.2048 16.7731 18.2048 14.9997C18.2048 13.2262 16.7735 11.795 15.0001 11.795ZM15.0001 17.0825C13.8532 17.0825 12.9173 16.1466 12.9173 14.9997C12.9173 13.8528 13.8532 12.9169 15.0001 12.9169C16.1469 12.9169 17.0829 13.8528 17.0829 14.9997C17.0829 16.1466 16.1469 17.0825 15.0001 17.0825ZM18.336 10.9169C17.9219 10.9169 17.5876 11.2512 17.5876 11.6653C17.5876 12.0794 17.9219 12.4137 18.336 12.4137C18.7501 12.4137 19.0844 12.0809 19.0844 11.6653C19.0846 11.567 19.0653 11.4696 19.0277 11.3787C18.9902 11.2879 18.935 11.2053 18.8655 11.1358C18.796 11.0663 18.7134 11.0112 18.6226 10.9736C18.5317 10.936 18.4343 10.9167 18.336 10.9169ZM21.2469 14.9997C21.2469 14.1372 21.2548 13.2825 21.2063 12.4216C21.1579 11.4216 20.9298 10.5341 20.1985 9.80281C19.4657 9.07 18.5798 8.84343 17.5798 8.795C16.7173 8.74656 15.8626 8.75437 15.0016 8.75437C14.1391 8.75437 13.2844 8.74656 12.4235 8.795C11.4235 8.84343 10.536 9.07156 9.80476 9.80281C9.07195 10.5356 8.84539 11.4216 8.79695 12.4216C8.74851 13.2841 8.75632 14.1387 8.75632 14.9997C8.75632 15.8606 8.74851 16.7169 8.79695 17.5778C8.84539 18.5778 9.07351 19.4653 9.80476 20.1966C10.5376 20.9294 11.4235 21.1559 12.4235 21.2044C13.286 21.2528 14.1407 21.245 15.0016 21.245C15.8641 21.245 16.7188 21.2528 17.5798 21.2044C18.5798 21.1559 19.4673 20.9278 20.1985 20.1966C20.9313 19.4637 21.1579 18.5778 21.2063 17.5778C21.2563 16.7169 21.2469 15.8622 21.2469 14.9997ZM19.8719 18.6841C19.7579 18.9684 19.6204 19.1809 19.4001 19.3997C19.1798 19.62 18.9688 19.7575 18.6844 19.8716C17.8626 20.1981 15.911 20.1247 15.0001 20.1247C14.0891 20.1247 12.136 20.1981 11.3141 19.8731C11.0298 19.7591 10.8173 19.6216 10.5985 19.4012C10.3782 19.1809 10.2407 18.97 10.1266 18.6856C9.80164 17.8622 9.87507 15.9106 9.87507 14.9997C9.87507 14.0887 9.80164 12.1356 10.1266 11.3137C10.2407 11.0294 10.3782 10.8169 10.5985 10.5981C10.8188 10.3794 11.0298 10.2403 11.3141 10.1262C12.136 9.80125 14.0891 9.87468 15.0001 9.87468C15.911 9.87468 17.8641 9.80125 18.686 10.1262C18.9704 10.2403 19.1829 10.3778 19.4016 10.5981C19.6219 10.8184 19.7594 11.0294 19.8735 11.3137C20.1985 12.1356 20.1251 14.0887 20.1251 14.9997C20.1251 15.9106 20.1985 17.8622 19.8719 18.6841Z" fill="white"/>
</svg>
