<svg width="30" height="30" viewBox="0 0 30 30" fill="none" xmlns="http://www.w3.org/2000/svg">
<rect x="0.5" y="0.5" width="29" height="29" rx="14.5" stroke="white"/>
<mask id="path-2-outside-1" maskUnits="userSpaceOnUse" x="4" y="9" width="21" height="13" fill="black">
<rect fill="white" x="4" y="9" width="21" height="13"/>
<path d="M23.1558 18.4356C22.7425 17.9439 22.2756 17.5049 21.824 17.0803C21.6653 16.931 21.5011 16.7767 21.3431 16.6235C21.343 16.6234 21.343 16.6234 21.3429 16.6234C21.1303 16.4175 21.0262 16.2713 21.0153 16.1634C21.0047 16.0573 21.0777 15.8999 21.2457 15.6672C21.4969 15.3172 21.7646 14.9666 22.0236 14.6276C22.2539 14.3262 22.4919 14.0146 22.72 13.7012L22.7713 13.6308C23.2164 13.0192 23.6766 12.3867 23.9233 11.616C23.9937 11.3951 24.0668 11.0681 23.8904 10.781C23.7139 10.4939 23.3867 10.4088 23.1561 10.3698C23.0435 10.3506 22.9366 10.349 22.8372 10.349L19.9498 10.3465C19.4506 10.3382 19.1043 10.5731 18.9156 11.0448C18.7645 11.4216 18.5862 11.8582 18.3795 12.2723C17.9841 13.0719 17.4817 13.9928 16.7534 14.7601L16.7211 14.7943C16.6715 14.8468 16.5905 14.9327 16.5489 14.9525C16.47 14.9032 16.379 14.6217 16.3831 14.4743C16.3832 14.4706 16.3833 14.467 16.3833 14.4634L16.3807 11.1513C16.3807 11.1344 16.3795 11.1176 16.3772 11.1009C16.3125 10.6284 16.1862 10.1547 15.4329 10.0071C15.4088 10.0024 15.3842 10 15.3596 10H12.3562C11.7911 10 11.4922 10.2569 11.2526 10.5354C11.1832 10.6166 10.999 10.8322 11.0928 11.0958C11.1878 11.3625 11.4709 11.4157 11.5638 11.4331C11.8911 11.4948 12.0604 11.6785 12.1128 12.0296C12.2164 12.7118 12.2291 13.4415 12.1528 14.3251C12.1315 14.5623 12.092 14.7426 12.0282 14.8925C12.0105 14.9341 11.995 14.9598 11.9841 14.9749C11.9668 14.968 11.9399 14.9547 11.9027 14.9294C11.6727 14.7732 11.4993 14.5303 11.3317 14.2955C10.6622 13.357 10.099 12.3205 9.6098 11.1263C9.40833 10.637 9.02959 10.3637 8.54405 10.3566C7.61898 10.3413 6.76342 10.3417 5.92935 10.3578C5.53595 10.3645 5.26007 10.4875 5.10926 10.7232C4.95826 10.9594 4.96379 11.2605 5.12574 11.6184C6.28341 14.1741 7.33457 16.0332 8.53395 17.6466C9.37846 18.7825 10.2286 19.571 11.2093 20.128C12.2396 20.7132 13.4017 21 14.7498 21C14.9031 21 15.0591 20.9963 15.2171 20.9888C16.0489 20.9512 16.3873 20.6227 16.4242 19.8185C16.4449 19.3935 16.4925 19.0492 16.6579 18.7501C16.7041 18.6663 16.7563 18.6102 16.7974 18.5999C16.8411 18.5891 16.9186 18.6156 17.0048 18.6712C17.1624 18.7728 17.2982 18.9106 17.4097 19.0316C17.5229 19.1545 17.6372 19.2815 17.7478 19.4043C17.9832 19.6657 18.2266 19.9361 18.4816 20.194C19.0584 20.7777 19.7233 21.0454 20.4587 20.9893L23.1011 20.9905C23.1012 20.9905 23.1012 20.9905 23.1012 20.9905C23.1096 20.9905 23.118 20.9903 23.1264 20.9897C23.4312 20.9696 23.6947 20.8021 23.8494 20.53C24.0358 20.2024 24.0329 19.7875 23.8418 19.4196C23.6423 19.0372 23.3834 18.708 23.1558 18.4356ZM23.1903 20.1605C23.1539 20.2246 23.109 20.2363 23.0858 20.2391L20.4439 20.2379C20.4439 20.2379 20.4438 20.2379 20.4437 20.2379C20.4332 20.2379 20.4228 20.2383 20.4125 20.2392C19.892 20.2822 19.4496 20.1006 19.0218 19.6677C18.7792 19.4223 18.5417 19.1586 18.3121 18.9036C18.2003 18.7793 18.0846 18.6508 17.9684 18.5245C17.8242 18.3682 17.6461 18.1886 17.4171 18.041C17.0744 17.8201 16.7903 17.8268 16.6125 17.8713C16.4365 17.9153 16.1863 18.041 15.9942 18.3889C15.7455 18.8391 15.6906 19.3247 15.6682 19.7835C15.6553 20.0641 15.6075 20.1382 15.5876 20.157C15.5614 20.1817 15.474 20.2251 15.1822 20.2383C13.7804 20.3037 12.6039 20.0545 11.5852 19.4759C10.6989 18.9725 9.92289 18.2494 9.14303 17.2005C7.97686 15.6318 6.95079 13.8153 5.81616 11.3105C5.77504 11.2197 5.76235 11.1631 5.75868 11.1328C5.78762 11.1234 5.84418 11.1109 5.94334 11.1091C6.76895 11.0933 7.61557 11.0928 8.53228 11.108C8.65779 11.1098 8.8007 11.1472 8.90891 11.4101C9.42006 12.6579 10.0105 13.7437 10.7141 14.7299C10.9009 14.9917 11.1334 15.3175 11.4752 15.5496C11.7882 15.7624 12.0422 15.7522 12.2002 15.7063C12.3583 15.6602 12.5777 15.5324 12.7255 15.1851C12.8208 14.9612 12.8784 14.7091 12.907 14.3906C12.9885 13.4455 12.974 12.6597 12.8615 11.9186C12.7822 11.3876 12.506 11.004 12.071 10.8081C12.1483 10.7682 12.2353 10.7516 12.3562 10.7516H15.3204C15.4872 10.7887 15.5202 10.8323 15.5316 10.8472C15.5796 10.9106 15.607 11.0606 15.6238 11.1778L15.6263 14.4594C15.6197 14.774 15.7737 15.4717 16.298 15.663C16.3023 15.6645 16.3067 15.666 16.311 15.6674C16.7884 15.8223 17.1041 15.4878 17.2737 15.308L17.3039 15.2761C18.1016 14.4356 18.6387 13.4535 19.0584 12.6048C19.2771 12.1666 19.4624 11.7133 19.619 11.3226C19.6974 11.1266 19.7687 11.0944 19.9389 11.0979C19.9412 11.098 19.9435 11.098 19.9459 11.098L22.8369 11.1005C22.9042 11.1005 22.9744 11.1013 23.0288 11.1106C23.1665 11.1339 23.2233 11.1622 23.242 11.174C23.2439 11.1957 23.2435 11.2584 23.2018 11.3891C22.9921 12.0445 22.5869 12.6013 22.1578 13.1908L22.1066 13.2613C21.8837 13.5675 21.6483 13.8756 21.4207 14.1736C21.1583 14.517 20.8871 14.872 20.63 15.2303C20.0803 15.9918 20.1286 16.4971 20.8146 17.1614C20.9768 17.3186 21.1429 17.4748 21.3037 17.626C21.7594 18.0545 22.1899 18.4593 22.5741 18.9164C22.7753 19.1571 23.0033 19.4462 23.1694 19.7648C23.2561 19.9315 23.2349 20.0822 23.1903 20.1605Z"/>
</mask>
<path d="M23.1558 18.4356C22.7425 17.9439 22.2756 17.5049 21.824 17.0803C21.6653 16.931 21.5011 16.7767 21.3431 16.6235C21.343 16.6234 21.343 16.6234 21.3429 16.6234C21.1303 16.4175 21.0262 16.2713 21.0153 16.1634C21.0047 16.0573 21.0777 15.8999 21.2457 15.6672C21.4969 15.3172 21.7646 14.9666 22.0236 14.6276C22.2539 14.3262 22.4919 14.0146 22.72 13.7012L22.7713 13.6308C23.2164 13.0192 23.6766 12.3867 23.9233 11.616C23.9937 11.3951 24.0668 11.0681 23.8904 10.781C23.7139 10.4939 23.3867 10.4088 23.1561 10.3698C23.0435 10.3506 22.9366 10.349 22.8372 10.349L19.9498 10.3465C19.4506 10.3382 19.1043 10.5731 18.9156 11.0448C18.7645 11.4216 18.5862 11.8582 18.3795 12.2723C17.9841 13.0719 17.4817 13.9928 16.7534 14.7601L16.7211 14.7943C16.6715 14.8468 16.5905 14.9327 16.5489 14.9525C16.47 14.9032 16.379 14.6217 16.3831 14.4743C16.3832 14.4706 16.3833 14.467 16.3833 14.4634L16.3807 11.1513C16.3807 11.1344 16.3795 11.1176 16.3772 11.1009C16.3125 10.6284 16.1862 10.1547 15.4329 10.0071C15.4088 10.0024 15.3842 10 15.3596 10H12.3562C11.7911 10 11.4922 10.2569 11.2526 10.5354C11.1832 10.6166 10.999 10.8322 11.0928 11.0958C11.1878 11.3625 11.4709 11.4157 11.5638 11.4331C11.8911 11.4948 12.0604 11.6785 12.1128 12.0296C12.2164 12.7118 12.2291 13.4415 12.1528 14.3251C12.1315 14.5623 12.092 14.7426 12.0282 14.8925C12.0105 14.9341 11.995 14.9598 11.9841 14.9749C11.9668 14.968 11.9399 14.9547 11.9027 14.9294C11.6727 14.7732 11.4993 14.5303 11.3317 14.2955C10.6622 13.357 10.099 12.3205 9.6098 11.1263C9.40833 10.637 9.02959 10.3637 8.54405 10.3566C7.61898 10.3413 6.76342 10.3417 5.92935 10.3578C5.53595 10.3645 5.26007 10.4875 5.10926 10.7232C4.95826 10.9594 4.96379 11.2605 5.12574 11.6184C6.28341 14.1741 7.33457 16.0332 8.53395 17.6466C9.37846 18.7825 10.2286 19.571 11.2093 20.128C12.2396 20.7132 13.4017 21 14.7498 21C14.9031 21 15.0591 20.9963 15.2171 20.9888C16.0489 20.9512 16.3873 20.6227 16.4242 19.8185C16.4449 19.3935 16.4925 19.0492 16.6579 18.7501C16.7041 18.6663 16.7563 18.6102 16.7974 18.5999C16.8411 18.5891 16.9186 18.6156 17.0048 18.6712C17.1624 18.7728 17.2982 18.9106 17.4097 19.0316C17.5229 19.1545 17.6372 19.2815 17.7478 19.4043C17.9832 19.6657 18.2266 19.9361 18.4816 20.194C19.0584 20.7777 19.7233 21.0454 20.4587 20.9893L23.1011 20.9905C23.1012 20.9905 23.1012 20.9905 23.1012 20.9905C23.1096 20.9905 23.118 20.9903 23.1264 20.9897C23.4312 20.9696 23.6947 20.8021 23.8494 20.53C24.0358 20.2024 24.0329 19.7875 23.8418 19.4196C23.6423 19.0372 23.3834 18.708 23.1558 18.4356ZM23.1903 20.1605C23.1539 20.2246 23.109 20.2363 23.0858 20.2391L20.4439 20.2379C20.4439 20.2379 20.4438 20.2379 20.4437 20.2379C20.4332 20.2379 20.4228 20.2383 20.4125 20.2392C19.892 20.2822 19.4496 20.1006 19.0218 19.6677C18.7792 19.4223 18.5417 19.1586 18.3121 18.9036C18.2003 18.7793 18.0846 18.6508 17.9684 18.5245C17.8242 18.3682 17.6461 18.1886 17.4171 18.041C17.0744 17.8201 16.7903 17.8268 16.6125 17.8713C16.4365 17.9153 16.1863 18.041 15.9942 18.3889C15.7455 18.8391 15.6906 19.3247 15.6682 19.7835C15.6553 20.0641 15.6075 20.1382 15.5876 20.157C15.5614 20.1817 15.474 20.2251 15.1822 20.2383C13.7804 20.3037 12.6039 20.0545 11.5852 19.4759C10.6989 18.9725 9.92289 18.2494 9.14303 17.2005C7.97686 15.6318 6.95079 13.8153 5.81616 11.3105C5.77504 11.2197 5.76235 11.1631 5.75868 11.1328C5.78762 11.1234 5.84418 11.1109 5.94334 11.1091C6.76895 11.0933 7.61557 11.0928 8.53228 11.108C8.65779 11.1098 8.8007 11.1472 8.90891 11.4101C9.42006 12.6579 10.0105 13.7437 10.7141 14.7299C10.9009 14.9917 11.1334 15.3175 11.4752 15.5496C11.7882 15.7624 12.0422 15.7522 12.2002 15.7063C12.3583 15.6602 12.5777 15.5324 12.7255 15.1851C12.8208 14.9612 12.8784 14.7091 12.907 14.3906C12.9885 13.4455 12.974 12.6597 12.8615 11.9186C12.7822 11.3876 12.506 11.004 12.071 10.8081C12.1483 10.7682 12.2353 10.7516 12.3562 10.7516H15.3204C15.4872 10.7887 15.5202 10.8323 15.5316 10.8472C15.5796 10.9106 15.607 11.0606 15.6238 11.1778L15.6263 14.4594C15.6197 14.774 15.7737 15.4717 16.298 15.663C16.3023 15.6645 16.3067 15.666 16.311 15.6674C16.7884 15.8223 17.1041 15.4878 17.2737 15.308L17.3039 15.2761C18.1016 14.4356 18.6387 13.4535 19.0584 12.6048C19.2771 12.1666 19.4624 11.7133 19.619 11.3226C19.6974 11.1266 19.7687 11.0944 19.9389 11.0979C19.9412 11.098 19.9435 11.098 19.9459 11.098L22.8369 11.1005C22.9042 11.1005 22.9744 11.1013 23.0288 11.1106C23.1665 11.1339 23.2233 11.1622 23.242 11.174C23.2439 11.1957 23.2435 11.2584 23.2018 11.3891C22.9921 12.0445 22.5869 12.6013 22.1578 13.1908L22.1066 13.2613C21.8837 13.5675 21.6483 13.8756 21.4207 14.1736C21.1583 14.517 20.8871 14.872 20.63 15.2303C20.0803 15.9918 20.1286 16.4971 20.8146 17.1614C20.9768 17.3186 21.1429 17.4748 21.3037 17.626C21.7594 18.0545 22.1899 18.4593 22.5741 18.9164C22.7753 19.1571 23.0033 19.4462 23.1694 19.7648C23.2561 19.9315 23.2349 20.0822 23.1903 20.1605Z" fill="white"/>
<path d="M23.1558 18.4356C22.7425 17.9439 22.2756 17.5049 21.824 17.0803C21.6653 16.931 21.5011 16.7767 21.3431 16.6235C21.343 16.6234 21.343 16.6234 21.3429 16.6234C21.1303 16.4175 21.0262 16.2713 21.0153 16.1634C21.0047 16.0573 21.0777 15.8999 21.2457 15.6672C21.4969 15.3172 21.7646 14.9666 22.0236 14.6276C22.2539 14.3262 22.4919 14.0146 22.72 13.7012L22.7713 13.6308C23.2164 13.0192 23.6766 12.3867 23.9233 11.616C23.9937 11.3951 24.0668 11.0681 23.8904 10.781C23.7139 10.4939 23.3867 10.4088 23.1561 10.3698C23.0435 10.3506 22.9366 10.349 22.8372 10.349L19.9498 10.3465C19.4506 10.3382 19.1043 10.5731 18.9156 11.0448C18.7645 11.4216 18.5862 11.8582 18.3795 12.2723C17.9841 13.0719 17.4817 13.9928 16.7534 14.7601L16.7211 14.7943C16.6715 14.8468 16.5905 14.9327 16.5489 14.9525C16.47 14.9032 16.379 14.6217 16.3831 14.4743C16.3832 14.4706 16.3833 14.467 16.3833 14.4634L16.3807 11.1513C16.3807 11.1344 16.3795 11.1176 16.3772 11.1009C16.3125 10.6284 16.1862 10.1547 15.4329 10.0071C15.4088 10.0024 15.3842 10 15.3596 10H12.3562C11.7911 10 11.4922 10.2569 11.2526 10.5354C11.1832 10.6166 10.999 10.8322 11.0928 11.0958C11.1878 11.3625 11.4709 11.4157 11.5638 11.4331C11.8911 11.4948 12.0604 11.6785 12.1128 12.0296C12.2164 12.7118 12.2291 13.4415 12.1528 14.3251C12.1315 14.5623 12.092 14.7426 12.0282 14.8925C12.0105 14.9341 11.995 14.9598 11.9841 14.9749C11.9668 14.968 11.9399 14.9547 11.9027 14.9294C11.6727 14.7732 11.4993 14.5303 11.3317 14.2955C10.6622 13.357 10.099 12.3205 9.6098 11.1263C9.40833 10.637 9.02959 10.3637 8.54405 10.3566C7.61898 10.3413 6.76342 10.3417 5.92935 10.3578C5.53595 10.3645 5.26007 10.4875 5.10926 10.7232C4.95826 10.9594 4.96379 11.2605 5.12574 11.6184C6.28341 14.1741 7.33457 16.0332 8.53395 17.6466C9.37846 18.7825 10.2286 19.571 11.2093 20.128C12.2396 20.7132 13.4017 21 14.7498 21C14.9031 21 15.0591 20.9963 15.2171 20.9888C16.0489 20.9512 16.3873 20.6227 16.4242 19.8185C16.4449 19.3935 16.4925 19.0492 16.6579 18.7501C16.7041 18.6663 16.7563 18.6102 16.7974 18.5999C16.8411 18.5891 16.9186 18.6156 17.0048 18.6712C17.1624 18.7728 17.2982 18.9106 17.4097 19.0316C17.5229 19.1545 17.6372 19.2815 17.7478 19.4043C17.9832 19.6657 18.2266 19.9361 18.4816 20.194C19.0584 20.7777 19.7233 21.0454 20.4587 20.9893L23.1011 20.9905C23.1012 20.9905 23.1012 20.9905 23.1012 20.9905C23.1096 20.9905 23.118 20.9903 23.1264 20.9897C23.4312 20.9696 23.6947 20.8021 23.8494 20.53C24.0358 20.2024 24.0329 19.7875 23.8418 19.4196C23.6423 19.0372 23.3834 18.708 23.1558 18.4356ZM23.1903 20.1605C23.1539 20.2246 23.109 20.2363 23.0858 20.2391L20.4439 20.2379C20.4439 20.2379 20.4438 20.2379 20.4437 20.2379C20.4332 20.2379 20.4228 20.2383 20.4125 20.2392C19.892 20.2822 19.4496 20.1006 19.0218 19.6677C18.7792 19.4223 18.5417 19.1586 18.3121 18.9036C18.2003 18.7793 18.0846 18.6508 17.9684 18.5245C17.8242 18.3682 17.6461 18.1886 17.4171 18.041C17.0744 17.8201 16.7903 17.8268 16.6125 17.8713C16.4365 17.9153 16.1863 18.041 15.9942 18.3889C15.7455 18.8391 15.6906 19.3247 15.6682 19.7835C15.6553 20.0641 15.6075 20.1382 15.5876 20.157C15.5614 20.1817 15.474 20.2251 15.1822 20.2383C13.7804 20.3037 12.6039 20.0545 11.5852 19.4759C10.6989 18.9725 9.92289 18.2494 9.14303 17.2005C7.97686 15.6318 6.95079 13.8153 5.81616 11.3105C5.77504 11.2197 5.76235 11.1631 5.75868 11.1328C5.78762 11.1234 5.84418 11.1109 5.94334 11.1091C6.76895 11.0933 7.61557 11.0928 8.53228 11.108C8.65779 11.1098 8.8007 11.1472 8.90891 11.4101C9.42006 12.6579 10.0105 13.7437 10.7141 14.7299C10.9009 14.9917 11.1334 15.3175 11.4752 15.5496C11.7882 15.7624 12.0422 15.7522 12.2002 15.7063C12.3583 15.6602 12.5777 15.5324 12.7255 15.1851C12.8208 14.9612 12.8784 14.7091 12.907 14.3906C12.9885 13.4455 12.974 12.6597 12.8615 11.9186C12.7822 11.3876 12.506 11.004 12.071 10.8081C12.1483 10.7682 12.2353 10.7516 12.3562 10.7516H15.3204C15.4872 10.7887 15.5202 10.8323 15.5316 10.8472C15.5796 10.9106 15.607 11.0606 15.6238 11.1778L15.6263 14.4594C15.6197 14.774 15.7737 15.4717 16.298 15.663C16.3023 15.6645 16.3067 15.666 16.311 15.6674C16.7884 15.8223 17.1041 15.4878 17.2737 15.308L17.3039 15.2761C18.1016 14.4356 18.6387 13.4535 19.0584 12.6048C19.2771 12.1666 19.4624 11.7133 19.619 11.3226C19.6974 11.1266 19.7687 11.0944 19.9389 11.0979C19.9412 11.098 19.9435 11.098 19.9459 11.098L22.8369 11.1005C22.9042 11.1005 22.9744 11.1013 23.0288 11.1106C23.1665 11.1339 23.2233 11.1622 23.242 11.174C23.2439 11.1957 23.2435 11.2584 23.2018 11.3891C22.9921 12.0445 22.5869 12.6013 22.1578 13.1908L22.1066 13.2613C21.8837 13.5675 21.6483 13.8756 21.4207 14.1736C21.1583 14.517 20.8871 14.872 20.63 15.2303C20.0803 15.9918 20.1286 16.4971 20.8146 17.1614C20.9768 17.3186 21.1429 17.4748 21.3037 17.626C21.7594 18.0545 22.1899 18.4593 22.5741 18.9164C22.7753 19.1571 23.0033 19.4462 23.1694 19.7648C23.2561 19.9315 23.2349 20.0822 23.1903 20.1605Z" stroke="white" stroke-width="0.4" mask="url(#path-2-outside-1)"/>
</svg>
