<svg width="30" height="30" viewBox="0 0 30 30" fill="none" xmlns="http://www.w3.org/2000/svg">
<rect x="0.5" y="0.5" width="29" height="29" rx="14.5" stroke="white"/>
<path d="M22 14.9566C22 14.9223 22 14.8832 21.9984 14.8379C21.9969 14.7113 21.9938 14.5691 21.9906 14.4176C21.9781 13.9816 21.9563 13.5473 21.9219 13.1379C21.875 12.5738 21.8062 12.1035 21.7125 11.7504C21.6136 11.3819 21.4196 11.0458 21.1501 10.7757C20.8806 10.5056 20.5449 10.311 20.1766 10.2113C19.7344 10.0926 18.8687 10.0191 17.65 9.97383C17.0703 9.95195 16.45 9.93789 15.8297 9.93008C15.6125 9.92695 15.4109 9.92539 15.2297 9.92383H14.7703C14.5891 9.92539 14.3875 9.92695 14.1703 9.93008C13.55 9.93789 12.9297 9.95195 12.35 9.97383C11.1312 10.0207 10.2641 10.0941 9.82344 10.2113C9.455 10.3108 9.11917 10.5053 8.8496 10.7754C8.58003 11.0455 8.38619 11.3818 8.2875 11.7504C8.19219 12.1035 8.125 12.5738 8.07812 13.1379C8.04375 13.5473 8.02187 13.9816 8.00937 14.4176C8.00469 14.5691 8.00312 14.7113 8.00156 14.8379C8.00156 14.8832 8 14.9223 8 14.9566V15.0441C8 15.0785 8 15.1176 8.00156 15.1629C8.00312 15.2895 8.00625 15.4316 8.00937 15.5832C8.02187 16.0191 8.04375 16.4535 8.07812 16.8629C8.125 17.427 8.19375 17.8973 8.2875 18.2504C8.4875 18.9988 9.075 19.5895 9.82344 19.7895C10.2641 19.9082 11.1312 19.9816 12.35 20.027C12.9297 20.0488 13.55 20.0629 14.1703 20.0707C14.3875 20.0738 14.5891 20.0754 14.7703 20.077H15.2297C15.4109 20.0754 15.6125 20.0738 15.8297 20.0707C16.45 20.0629 17.0703 20.0488 17.65 20.027C18.8687 19.9801 19.7359 19.9066 20.1766 19.7895C20.925 19.5895 21.5125 19.0004 21.7125 18.2504C21.8078 17.8973 21.875 17.427 21.9219 16.8629C21.9563 16.4535 21.9781 16.0191 21.9906 15.5832C21.9953 15.4316 21.9969 15.2895 21.9984 15.1629C21.9984 15.1176 22 15.0785 22 15.0441V14.9566ZM20.875 15.0379C20.875 15.0707 20.875 15.1066 20.8734 15.1488C20.8719 15.2707 20.8688 15.4051 20.8656 15.5504C20.8547 15.966 20.8328 16.3816 20.8 16.7676C20.7578 17.2707 20.6984 17.6832 20.625 17.9598C20.5281 18.3207 20.2437 18.6066 19.8844 18.702C19.5562 18.7895 18.7297 18.8598 17.6062 18.902C17.0375 18.9238 16.425 18.9379 15.8141 18.9457C15.6 18.9488 15.4016 18.9504 15.2234 18.9504H14.7766L14.1859 18.9457C13.575 18.9379 12.9641 18.9238 12.3938 18.902C11.2703 18.8582 10.4422 18.7895 10.1156 18.702C9.75625 18.6051 9.47187 18.3207 9.375 17.9598C9.30156 17.6832 9.24219 17.2707 9.2 16.7676C9.16719 16.3816 9.14688 15.966 9.13438 15.5504C9.12969 15.4051 9.12813 15.2691 9.12656 15.1488C9.12656 15.1066 9.125 15.0691 9.125 15.0379V14.9629C9.125 14.9301 9.125 14.8941 9.12656 14.852C9.12813 14.7301 9.13125 14.5957 9.13438 14.4504C9.14531 14.0348 9.16719 13.6191 9.2 13.2332C9.24219 12.7301 9.30156 12.3176 9.375 12.041C9.47187 11.6801 9.75625 11.3941 10.1156 11.2988C10.4437 11.2113 11.2703 11.141 12.3938 11.0988C12.9625 11.077 13.575 11.0629 14.1859 11.0551C14.4 11.052 14.5984 11.0504 14.7766 11.0504H15.2234L15.8141 11.0551C16.425 11.0629 17.0359 11.077 17.6062 11.0988C18.7297 11.1426 19.5578 11.2113 19.8844 11.2988C20.2437 11.3957 20.5281 11.6801 20.625 12.041C20.6984 12.3176 20.7578 12.7301 20.8 13.2332C20.8328 13.6191 20.8531 14.0348 20.8656 14.4504C20.8703 14.5957 20.8719 14.7316 20.8734 14.852C20.8734 14.8941 20.875 14.9316 20.875 14.9629V15.0379ZM13.6094 17.0941L17.2344 14.9848L13.6094 12.9066V17.0941Z" fill="white"/>
</svg>
